<?xml version="1.0" encoding="UTF-8"?>
<svg id="Layer_2" xmlns="http://www.w3.org/2000/svg" xmlns:xlink="http://www.w3.org/1999/xlink" viewBox="0 0 260 117.38">
  <defs>
    <style>
      .cls-1 {
        fill: #ee809d;
      }

      .cls-2 {
        fill: none;
      }

      .cls-3 {
        clip-path: url(#clippath-1);
      }

      .cls-4 {
        opacity: .1;
      }

      .cls-5 {
        clip-path: url(#clippath-2);
      }

      .cls-6 {
        fill: #f5a4b5;
      }

      .cls-7 {
        clip-path: url(#clippath);
      }
    </style>
    <clipPath id="clippath">
      <rect class="cls-2" width="260" height="117.38"/>
    </clipPath>
    <clipPath id="clippath-1">
      <rect class="cls-2" width="260" height="117.38"/>
    </clipPath>
    <clipPath id="clippath-2">
      <rect class="cls-2" x="3.91" width="256.09" height="117.38"/>
    </clipPath>
  </defs>
  <g id="Layer_1-2" data-name="Layer_1">
    <g class="cls-7">
      <g class="cls-3">
        <g class="cls-4">
          <g class="cls-5">
            <path class="cls-1" d="M3.91,0v117.38h223.82l30.51-20.62h1.76v-1.04h-.22l.22-.15V0H3.91ZM19.03,106.77h-6.95v-5.54h6.95v5.54ZM19.03,97.42h-6.95v-5.54h6.95v5.54ZM19.03,88.08h-6.95v-5.54h6.95v5.54ZM19.03,34.84h-6.95v-5.54h6.95v5.54ZM19.03,25.49h-6.95v-5.54h6.95v5.54ZM19.03,16.14h-6.95v-5.54h6.95v5.54Z"/>
          </g>
        </g>
      </g>
      <path class="cls-1" d="M8.18,101.23h6.95v5.54h-6.95v-5.54ZM8.18,91.88h6.95v5.54h-6.95v-5.54ZM8.18,82.53h6.95v5.54h-6.95v-5.54ZM8.18,29.3h6.95v5.54h-6.95v-5.54ZM8.18,19.95h6.95v5.54h-6.95v-5.54ZM8.18,10.6h6.95v5.54h-6.95v-5.54ZM0,0v117.38h223.82l32.27-21.81V0H0Z"/>
      <rect class="cls-6" x="27.5" width="1.3" height="117.38"/>
      <rect class="cls-6" x="28.8" y="23" width="227.29" height="1.04"/>
      <rect class="cls-6" x="28.8" y="43.78" width="227.29" height="1.04"/>
      <rect class="cls-6" x="28.8" y="64.55" width="227.29" height="1.04"/>
      <rect class="cls-6" x="28.8" y="85.33" width="227.29" height="1.04"/>
      <rect class="cls-6" x="28.8" y="106.1" width="202.12" height="1.04"/>
      <polygon class="cls-6" points="223.82 95.71 223.82 117.38 256.09 95.71 223.82 95.71"/>
    </g>
  </g>
</svg>