<?xml version="1.0" encoding="UTF-8"?>
<svg id="Layer_2" xmlns="http://www.w3.org/2000/svg" viewBox="0 0 595.28 215.05">
  <defs>
    <style>
      .cls-1 {
        fill: #9bcff6;
      }
    </style>
  </defs>
  <g id="Layer_1-2" data-name="Layer_1">
    <g>
      <path class="cls-1" d="M595.28,106.58v51.36c-3.24-1.98-8.45-4.16-12.36-5.22-34.83-9.41-47.75,26.21-86.72,23.93-33.62-1.97-45.91-36.2-81.07-21.79-36.39,14.91-49.73,61.85-88.46,58.94-33.99-2.55-49.33-56.92-82.52-58.94-36.59-2.23-52.63,46.33-93.46,46.31-42.45-.03-61.65-52.57-93.45-49.16-30.39,3.27-50.4,72.63-52.02,61.92C-.8,173.98,1.01,171.07,0,142.16c-.16-4.69,20.62-47.26,51.93-49.28,36.36-2.35,57.3,34.92,98.63,34.23,38.83-.65,51.91-30.37,86.15-29.25,33.4,1.1,43.9,37.55,79.86,39.73,38.1,2.31,58.93-39.45,96.43-36.88,34.29,2.36,41.55,31.27,73.22,32.12,30.74.82,39.26-24.45,85.02-28.56,8.48-.75,16.59.28,24.04,2.31Z"/>
      <rect class="cls-1" x="0" width="595.28" height="143.67"/>
    </g>
  </g>
</svg>