<?xml version="1.0" encoding="UTF-8"?>
<svg id="Layer_2" xmlns="http://www.w3.org/2000/svg" xmlns:xlink="http://www.w3.org/1999/xlink" viewBox="0 0 259.26 130.54">
  <defs>
    <style>
      .cls-1 {
        fill: url(#linear-gradient-28);
      }

      .cls-2 {
        fill: url(#linear-gradient-5);
        opacity: .15;
      }

      .cls-2, .cls-3, .cls-4, .cls-5, .cls-6, .cls-7, .cls-8, .cls-9, .cls-10, .cls-11, .cls-12, .cls-13, .cls-14, .cls-15, .cls-16, .cls-17, .cls-18, .cls-19, .cls-20, .cls-21, .cls-22, .cls-23, .cls-24, .cls-25, .cls-26, .cls-27 {
        isolation: isolate;
      }

      .cls-3 {
        fill: url(#linear-gradient-26);
        opacity: .96;
      }

      .cls-4 {
        fill: url(#linear-gradient-17);
        opacity: .62;
      }

      .cls-5 {
        fill: url(#linear-gradient-22);
        opacity: .81;
      }

      .cls-6 {
        fill: url(#linear-gradient-21);
        opacity: .77;
      }

      .cls-7 {
        fill: url(#linear-gradient-25);
        opacity: .92;
      }

      .cls-28 {
        fill: url(#linear-gradient-27);
      }

      .cls-8 {
        fill: url(#linear-gradient-14);
        opacity: .5;
      }

      .cls-9 {
        fill: url(#linear-gradient-16);
        opacity: .58;
      }

      .cls-10 {
        fill: url(#linear-gradient-7);
        opacity: .23;
      }

      .cls-11 {
        fill: url(#linear-gradient-18);
        opacity: .65;
      }

      .cls-12 {
        fill: url(#linear-gradient-13);
        opacity: .46;
      }

      .cls-14 {
        fill: url(#linear-gradient-15);
        opacity: .54;
      }

      .cls-29 {
        fill: #5e5e5e;
      }

      .cls-15 {
        fill: url(#linear-gradient-6);
        opacity: .19;
      }

      .cls-16 {
        fill: url(#linear-gradient-11);
        opacity: .38;
      }

      .cls-17 {
        fill: url(#linear-gradient-19);
        opacity: .69;
      }

      .cls-18 {
        fill: url(#linear-gradient-24);
        opacity: .88;
      }

      .cls-19 {
        fill: url(#linear-gradient-20);
        opacity: .73;
      }

      .cls-20 {
        fill: url(#linear-gradient-12);
        opacity: .42;
      }

      .cls-30 {
        fill: url(#linear-gradient);
        fill-opacity: 0;
      }

      .cls-21 {
        fill: url(#linear-gradient-2);
        opacity: .04;
      }

      .cls-22 {
        fill: url(#linear-gradient-10);
        opacity: .35;
      }

      .cls-23 {
        fill: url(#linear-gradient-23);
        opacity: .85;
      }

      .cls-24 {
        fill: url(#linear-gradient-9);
        opacity: .31;
      }

      .cls-31 {
        mix-blend-mode: multiply;
        opacity: .3;
      }

      .cls-25 {
        fill: url(#linear-gradient-4);
        opacity: .12;
      }

      .cls-26 {
        fill: url(#linear-gradient-8);
        opacity: .27;
      }

      .cls-32 {
        opacity: .8;
      }

      .cls-27 {
        fill: url(#linear-gradient-3);
        opacity: .08;
      }
    </style>
    <linearGradient id="linear-gradient" x1="0" y1="639.48" x2="257.41" y2="639.48" gradientTransform="translate(0 709.25) scale(1 -1)" gradientUnits="userSpaceOnUse">
      <stop offset="0" stop-color="#eeedee"/>
      <stop offset=".42" stop-color="#fff"/>
      <stop offset=".97" stop-color="#f6f6f6"/>
    </linearGradient>
    <linearGradient id="linear-gradient-2" x1=".47" y1="639.63" x2="257.25" y2="639.63" gradientTransform="translate(0 709.25) scale(1 -1)" gradientUnits="userSpaceOnUse">
      <stop offset="0" stop-color="#e9e8e8"/>
      <stop offset=".42" stop-color="#f9f9fa"/>
      <stop offset=".97" stop-color="#f1f0f0"/>
    </linearGradient>
    <linearGradient id="linear-gradient-3" x1=".97" y1="639.78" x2="257.09" y2="639.78" gradientTransform="translate(0 709.25) scale(1 -1)" gradientUnits="userSpaceOnUse">
      <stop offset="0" stop-color="#e3e3e3"/>
      <stop offset=".42" stop-color="#f3f3f3"/>
      <stop offset=".97" stop-color="#eaeaea"/>
    </linearGradient>
    <linearGradient id="linear-gradient-4" x1="1.44" y1="639.92" x2="256.91" y2="639.92" gradientTransform="translate(0 709.25) scale(1 -1)" gradientUnits="userSpaceOnUse">
      <stop offset="0" stop-color="#ddd"/>
      <stop offset=".42" stop-color="#ececec"/>
      <stop offset=".97" stop-color="#e4e4e4"/>
    </linearGradient>
    <linearGradient id="linear-gradient-5" x1="1.94" y1="640.07" x2="256.75" y2="640.07" gradientTransform="translate(0 709.25) scale(1 -1)" gradientUnits="userSpaceOnUse">
      <stop offset="0" stop-color="#d8d9d8"/>
      <stop offset=".42" stop-color="#e6e6e5"/>
      <stop offset=".97" stop-color="#dfdfde"/>
    </linearGradient>
    <linearGradient id="linear-gradient-6" x1="2.4" y1="640.21" x2="256.59" y2="640.21" gradientTransform="translate(0 709.25) scale(1 -1)" gradientUnits="userSpaceOnUse">
      <stop offset="0" stop-color="#d3d3d3"/>
      <stop offset=".42" stop-color="#e0e1e0"/>
      <stop offset=".97" stop-color="#d9d9d8"/>
    </linearGradient>
    <linearGradient id="linear-gradient-7" x1="2.9" y1="640.36" x2="256.41" y2="640.36" gradientTransform="translate(0 709.25) scale(1 -1)" gradientUnits="userSpaceOnUse">
      <stop offset="0" stop-color="#cececd"/>
      <stop offset=".42" stop-color="#dbdada"/>
      <stop offset=".97" stop-color="#d3d3d3"/>
    </linearGradient>
    <linearGradient id="linear-gradient-8" x1="6.39" y1="639.63" x2="259.26" y2="639.63" gradientTransform="translate(0 709.25) scale(1 -1)" gradientUnits="userSpaceOnUse">
      <stop offset="0" stop-color="#c8c7c6"/>
      <stop offset=".42" stop-color="#d3d3d3"/>
      <stop offset=".97" stop-color="#cececd"/>
    </linearGradient>
    <linearGradient id="linear-gradient-9" x1="3.87" y1="640.66" x2="256.09" y2="640.66" gradientTransform="translate(0 709.25) scale(1 -1)" gradientUnits="userSpaceOnUse">
      <stop offset="0" stop-color="#c2c1c1"/>
      <stop offset=".42" stop-color="#cececd"/>
      <stop offset=".97" stop-color="#c8c7c6"/>
    </linearGradient>
    <linearGradient id="linear-gradient-10" x1="4.34" y1="640.81" x2="255.91" y2="640.81" gradientTransform="translate(0 709.25) scale(1 -1)" gradientUnits="userSpaceOnUse">
      <stop offset="0" stop-color="#bcbcbc"/>
      <stop offset=".42" stop-color="#c8c7c6"/>
      <stop offset=".97" stop-color="#c2c1c1"/>
    </linearGradient>
    <linearGradient id="linear-gradient-11" x1="4.84" y1="640.95" x2="255.75" y2="640.95" gradientTransform="translate(0 709.25) scale(1 -1)" gradientUnits="userSpaceOnUse">
      <stop offset="0" stop-color="#b6b7b7"/>
      <stop offset=".42" stop-color="#c2c1c1"/>
      <stop offset=".97" stop-color="#bcbcbb"/>
    </linearGradient>
    <linearGradient id="linear-gradient-12" x1="5.31" y1="641.1" x2="255.59" y2="641.1" gradientTransform="translate(0 709.25) scale(1 -1)" gradientUnits="userSpaceOnUse">
      <stop offset="0" stop-color="#b2b2b2"/>
      <stop offset=".42" stop-color="#bbb"/>
      <stop offset=".97" stop-color="#b5b6b6"/>
    </linearGradient>
    <linearGradient id="linear-gradient-13" x1="5.81" y1="641.25" x2="255.41" y2="641.25" gradientTransform="translate(0 709.25) scale(1 -1)" gradientUnits="userSpaceOnUse">
      <stop offset="0" stop-color="#acacac"/>
      <stop offset=".42" stop-color="#b5b5b5"/>
      <stop offset=".97" stop-color="#b0b0b0"/>
    </linearGradient>
    <linearGradient id="linear-gradient-14" x1="6.28" y1="641.4" x2="255.25" y2="641.4" gradientTransform="translate(0 709.25) scale(1 -1)" gradientUnits="userSpaceOnUse">
      <stop offset="0" stop-color="#a7a6a6"/>
      <stop offset=".42" stop-color="#afafae"/>
      <stop offset=".97" stop-color="#ababab"/>
    </linearGradient>
    <linearGradient id="linear-gradient-15" x1="6.78" y1="641.55" x2="255.09" y2="641.55" gradientTransform="translate(0 709.25) scale(1 -1)" gradientUnits="userSpaceOnUse">
      <stop offset="0" stop-color="#9f9f9f"/>
      <stop offset=".42" stop-color="#a9a8a8"/>
      <stop offset=".97" stop-color="#a4a4a5"/>
    </linearGradient>
    <linearGradient id="linear-gradient-16" x1="7.25" y1="641.7" x2="254.94" y2="641.7" gradientTransform="translate(0 709.25) scale(1 -1)" gradientUnits="userSpaceOnUse">
      <stop offset="0" stop-color="#9a9a9a"/>
      <stop offset=".42" stop-color="#a2a2a1"/>
      <stop offset=".97" stop-color="#9e9e9e"/>
    </linearGradient>
    <linearGradient id="linear-gradient-17" x1="7.75" y1="641.84" x2="254.75" y2="641.84" gradientTransform="translate(0 709.25) scale(1 -1)" gradientUnits="userSpaceOnUse">
      <stop offset="0" stop-color="#959595"/>
      <stop offset=".42" stop-color="#9b9b9b"/>
      <stop offset=".97" stop-color="#989798"/>
    </linearGradient>
    <linearGradient id="linear-gradient-18" x1="8.21" y1="641.98" x2="254.6" y2="641.98" gradientTransform="translate(0 709.25) scale(1 -1)" gradientUnits="userSpaceOnUse">
      <stop offset="0" stop-color="#908f8f"/>
      <stop offset=".42" stop-color="#959595"/>
      <stop offset=".97" stop-color="#939292"/>
    </linearGradient>
    <linearGradient id="linear-gradient-19" x1="8.71" y1="642.13" x2="254.44" y2="642.13" gradientTransform="translate(0 709.25) scale(1 -1)" gradientUnits="userSpaceOnUse">
      <stop offset="0" stop-color="#8b8a8a"/>
      <stop offset=".42" stop-color="#908f8f"/>
      <stop offset=".97" stop-color="#8c8c8c"/>
    </linearGradient>
    <linearGradient id="linear-gradient-20" x1="9.18" y1="642.28" x2="254.25" y2="642.28" gradientTransform="translate(0 709.25) scale(1 -1)" gradientUnits="userSpaceOnUse">
      <stop offset="0" stop-color="#848484"/>
      <stop offset=".42" stop-color="#898989"/>
      <stop offset=".97" stop-color="#868686"/>
    </linearGradient>
    <linearGradient id="linear-gradient-21" x1="9.68" y1="642.43" x2="254.1" y2="642.43" gradientTransform="translate(0 709.25) scale(1 -1)" gradientUnits="userSpaceOnUse">
      <stop offset="0" stop-color="#7f7f7f"/>
      <stop offset=".42" stop-color="#838383"/>
      <stop offset=".97" stop-color="#818181"/>
    </linearGradient>
    <linearGradient id="linear-gradient-22" x1="10.15" y1="642.58" x2="253.94" y2="642.58" gradientTransform="translate(0 709.25) scale(1 -1)" gradientUnits="userSpaceOnUse">
      <stop offset="0" stop-color="#7a7a7a"/>
      <stop offset=".42" stop-color="#7d7d7d"/>
      <stop offset=".97" stop-color="#7c7b7b"/>
    </linearGradient>
    <linearGradient id="linear-gradient-23" x1="10.62" y1="642.72" x2="253.75" y2="642.72" gradientTransform="translate(0 709.25) scale(1 -1)" gradientUnits="userSpaceOnUse">
      <stop offset="0" stop-color="#747474"/>
      <stop offset=".42" stop-color="#777"/>
      <stop offset=".97" stop-color="#767676"/>
    </linearGradient>
    <linearGradient id="linear-gradient-24" x1="11.12" y1="642.87" x2="253.6" y2="642.87" gradientTransform="translate(0 709.25) scale(1 -1)" gradientUnits="userSpaceOnUse">
      <stop offset="0" stop-color="#6f6f6f"/>
      <stop offset=".42" stop-color="#717171"/>
      <stop offset=".97" stop-color="#6f7070"/>
    </linearGradient>
    <linearGradient id="linear-gradient-25" x1="11.59" y1="643.02" x2="253.41" y2="643.02" gradientTransform="translate(0 709.25) scale(1 -1)" gradientUnits="userSpaceOnUse">
      <stop offset="0" stop-color="#686969"/>
      <stop offset=".42" stop-color="#6a6a6a"/>
      <stop offset=".97" stop-color="#6a6a6a"/>
    </linearGradient>
    <linearGradient id="linear-gradient-26" x1="12.09" y1="643.17" x2="253.25" y2="643.17" gradientTransform="translate(0 709.25) scale(1 -1)" gradientUnits="userSpaceOnUse">
      <stop offset="0" stop-color="#646464"/>
      <stop offset=".42" stop-color="#646464"/>
      <stop offset=".97" stop-color="#646464"/>
    </linearGradient>
    <linearGradient id="linear-gradient-27" x1="134.98" y1="724.71" x2="134.98" y2="585.02" xlink:href="#linear-gradient"/>
    <linearGradient id="linear-gradient-28" x1="-145.55" y1="403.82" x2="-122.35" y2="197.46" gradientTransform="translate(298.09 170.15) rotate(-61.39) scale(.75 -.63) skewX(34.15)" gradientUnits="userSpaceOnUse">
      <stop offset=".04" stop-color="#b9e1ea"/>
      <stop offset="1" stop-color="#b6e1f8"/>
    </linearGradient>
  </defs>
  <g id="Layer_1-2" data-name="Layer_1">
    <g class="cls-13">
      <g id="_ëîé_1">
        <g class="cls-31">
          <polygon class="cls-30" points="238.54 9 238.54 14.47 243.98 14.47 243.98 20.63 230.14 20.63 230.14 14.47 235.58 14.47 235.58 9 214.34 9 214.34 14.47 219.77 14.47 219.77 20.63 205.94 20.63 205.94 14.47 211.37 14.47 211.37 9 190.13 9 190.13 14.47 195.57 14.47 195.57 20.63 181.73 20.63 181.73 14.47 187.17 14.47 187.17 9 165.93 9 165.93 14.47 171.36 14.47 171.36 20.63 157.53 20.63 157.53 14.47 162.96 14.47 162.96 9 141.73 9 141.73 14.47 147.16 14.47 147.16 20.63 133.33 20.63 133.33 14.47 138.73 14.47 138.73 9 117.52 9 117.52 14.47 122.96 14.47 122.96 20.63 109.12 20.63 109.12 14.47 114.52 14.47 114.52 9 93.32 9 93.32 14.47 98.75 14.47 98.75 20.63 84.92 20.63 84.92 14.47 90.35 14.47 90.35 9 69.11 9 69.11 14.47 74.55 14.47 74.55 20.63 60.71 20.63 60.71 14.47 66.15 14.47 66.15 9 44.91 9 44.91 14.47 50.34 14.47 50.34 20.63 36.51 20.63 36.51 14.47 41.94 14.47 41.94 9 20.71 9 20.71 14.47 26.14 14.47 26.14 20.63 12.31 20.63 12.31 14.47 17.71 14.47 17.71 9 0 9 0 130.54 257.41 130.54 257.41 9 238.54 9"/>
          <polygon class="cls-21" points="238.42 9 238.42 14.45 243.85 14.45 243.85 20.61 230.05 20.61 230.05 14.45 235.45 14.45 235.45 9 214.28 9 214.28 14.45 219.68 14.45 219.68 20.61 205.91 20.61 205.91 14.45 211.31 14.45 211.31 9 190.13 9 190.13 14.45 195.57 14.45 195.57 20.61 181.76 20.61 181.76 14.45 187.17 14.45 187.17 9 165.99 9 165.99 14.45 171.4 14.45 171.4 20.61 157.62 20.61 157.62 14.45 163.03 14.45 163.03 9 141.85 9 141.85 14.45 147.25 14.45 147.25 20.61 133.45 20.61 133.45 14.45 138.88 14.45 138.88 9 117.71 9 117.71 14.45 123.11 14.45 123.11 20.61 109.31 20.61 109.31 14.45 114.74 14.45 114.74 9 93.57 9 93.57 14.45 98.97 14.45 98.97 20.61 85.17 20.61 85.17 14.45 90.6 14.45 90.6 9 69.43 9 69.43 14.45 74.83 14.45 74.83 20.61 61.03 20.61 61.03 14.45 66.46 14.45 66.46 9 45.28 9 45.28 14.45 50.69 14.45 50.69 20.61 36.88 20.61 36.88 14.45 42.32 14.45 42.32 9 21.11 9 21.11 14.45 26.55 14.45 26.55 20.61 12.74 20.61 12.74 14.45 18.15 14.45 18.15 9 .47 9 .47 130.24 257.25 130.24 257.25 9 238.42 9"/>
          <polygon class="cls-27" points="238.32 9 238.32 14.44 243.7 14.44 243.7 20.57 229.95 20.57 229.95 14.44 235.36 14.44 235.36 9 214.21 9 214.21 14.44 219.62 14.44 219.62 20.57 205.87 20.57 205.87 14.44 211.25 14.44 211.25 9 190.13 9 190.13 14.44 195.54 14.44 195.54 20.57 181.76 20.57 181.76 14.44 187.17 14.44 187.17 9 166.06 9 166.06 14.44 171.46 14.44 171.46 20.57 157.69 20.57 157.69 14.44 163.09 14.44 163.09 9 141.98 9 141.98 14.44 147.38 14.44 147.38 20.57 133.61 20.57 133.61 14.44 139.01 14.44 139.01 9 117.9 9 117.9 14.44 123.3 14.44 123.3 20.57 109.53 20.57 109.53 14.44 114.93 14.44 114.93 9 93.82 9 93.82 14.44 99.22 14.44 99.22 20.57 85.45 20.57 85.45 14.44 90.85 14.44 90.85 9 69.74 9 69.74 14.44 75.11 14.44 75.11 20.57 61.37 20.57 61.37 14.44 66.77 14.44 66.77 9 45.66 9 45.66 14.44 51.03 14.44 51.03 20.57 37.29 20.57 37.29 14.44 42.69 14.44 42.69 9 21.55 9 21.55 14.44 26.95 14.44 26.95 20.57 13.21 20.57 13.21 14.44 18.61 14.44 18.61 9 .97 9 .97 129.94 257.09 129.94 257.09 9 238.32 9"/>
          <polygon class="cls-25" points="238.2 9 238.2 14.44 243.57 14.44 243.57 20.56 229.83 20.56 229.83 14.44 235.23 14.44 235.23 9 214.18 9 214.18 14.44 219.55 14.44 219.55 20.56 205.81 20.56 205.81 14.44 211.22 14.44 211.22 9 190.13 9 190.13 14.44 195.54 14.44 195.54 20.56 181.8 20.56 181.8 14.44 187.2 14.44 187.2 9 166.12 9 166.12 14.44 171.52 14.44 171.52 20.56 157.78 20.56 157.78 14.44 163.15 14.44 163.15 9 142.1 9 142.1 14.44 147.5 14.44 147.5 20.56 133.76 20.56 133.76 14.44 139.13 14.44 139.13 9 118.08 9 118.08 14.44 123.46 14.44 123.46 20.56 109.75 20.56 109.75 14.44 115.12 14.44 115.12 9 94.07 9 94.07 14.44 99.44 14.44 99.44 20.56 85.73 20.56 85.73 14.44 91.1 14.44 91.1 9 70.05 9 70.05 14.44 75.42 14.44 75.42 20.56 61.68 20.56 61.68 14.44 67.08 14.44 67.08 9 46 9 46 14.44 51.41 14.44 51.41 20.56 37.66 20.56 37.66 14.44 43.07 14.44 43.07 9 21.99 9 21.99 14.44 27.39 14.44 27.39 20.56 13.65 20.56 13.65 14.44 19.02 14.44 19.02 9 1.44 9 1.44 129.65 256.91 129.65 256.91 9 238.2 9"/>
          <polygon class="cls-2" points="238.07 9 238.07 14.42 243.45 14.42 243.45 20.52 229.74 20.52 229.74 14.42 235.11 14.42 235.11 9 214.12 9 214.12 14.42 219.49 14.42 219.49 20.52 205.78 20.52 205.78 14.42 211.15 14.42 211.15 9 190.13 9 190.13 14.42 195.51 14.42 195.51 20.52 181.83 20.52 181.83 14.42 187.2 14.42 187.2 9 166.18 9 166.18 14.42 171.55 14.42 171.55 20.52 157.87 20.52 157.87 14.42 163.24 14.42 163.24 9 142.23 9 142.23 14.42 147.6 14.42 147.6 20.52 133.92 20.52 133.92 14.42 139.29 14.42 139.29 9 118.27 9 118.27 14.42 123.64 14.42 123.64 20.52 109.93 20.52 109.93 14.42 115.3 14.42 115.3 9 94.32 9 94.32 14.42 99.69 14.42 99.69 20.52 85.98 20.52 85.98 14.42 91.35 14.42 91.35 9 70.33 9 70.33 14.42 75.7 14.42 75.7 20.52 62.02 20.52 62.02 14.42 67.4 14.42 67.4 9 46.38 9 46.38 14.42 51.75 14.42 51.75 20.52 38.07 20.52 38.07 14.42 43.44 14.42 43.44 9 22.42 9 22.42 14.42 27.8 14.42 27.8 20.52 14.09 20.52 14.09 14.42 19.49 14.42 19.49 9 1.94 9 1.94 129.35 256.75 129.35 256.75 9 238.07 9"/>
          <polygon class="cls-15" points="237.95 9 237.95 14.4 243.32 14.4 243.32 20.49 229.64 20.49 229.64 14.4 235.01 14.4 235.01 9 214.06 9 214.06 14.4 219.4 14.4 219.4 20.49 205.75 20.49 205.75 14.4 211.12 14.4 211.12 9 190.13 9 190.13 14.4 195.51 14.4 195.51 20.49 181.86 20.49 181.86 14.4 187.2 14.4 187.2 9 166.24 9 166.24 14.4 171.61 14.4 171.61 20.49 157.97 20.49 157.97 14.4 163.31 14.4 163.31 9 142.35 9 142.35 14.4 147.72 14.4 147.72 20.49 134.04 20.49 134.04 14.4 139.42 14.4 139.42 9 118.46 9 118.46 14.4 123.8 14.4 123.8 20.49 110.15 20.49 110.15 14.4 115.52 14.4 115.52 9 94.54 9 94.54 14.4 99.91 14.4 99.91 20.49 86.26 20.49 86.26 14.4 91.6 14.4 91.6 9 70.64 9 70.64 14.4 76.02 14.4 76.02 20.49 62.34 20.49 62.34 14.4 67.71 14.4 67.71 9 46.75 9 46.75 14.4 52.12 14.4 52.12 20.49 38.45 20.49 38.45 14.4 43.82 14.4 43.82 9 22.86 9 22.86 14.4 28.2 14.4 28.2 20.49 14.55 20.49 14.55 14.4 19.93 14.4 19.93 9 2.4 9 2.4 129.07 256.59 129.07 256.59 9 237.95 9"/>
          <polygon class="cls-10" points="237.82 9 237.82 14.38 243.16 14.38 243.16 20.47 229.55 20.47 229.55 14.38 234.89 14.38 234.89 9 213.99 9 213.99 14.38 219.34 14.38 219.34 20.47 205.72 20.47 205.72 14.38 211.06 14.38 211.06 9 190.17 9 190.17 14.38 195.51 14.38 195.51 20.47 181.89 20.47 181.89 14.38 187.23 14.38 187.23 9 166.31 9 166.31 14.38 171.68 14.38 171.68 20.47 158.03 20.47 158.03 14.38 163.37 14.38 163.37 9 142.48 9 142.48 14.38 147.82 14.38 147.82 20.47 134.2 20.47 134.2 14.38 139.54 14.38 139.54 9 118.65 9 118.65 14.38 123.99 14.38 123.99 20.47 110.37 20.47 110.37 14.38 115.71 14.38 115.71 9 94.82 9 94.82 14.38 100.16 14.38 100.16 20.47 86.51 20.47 86.51 14.38 91.88 14.38 91.88 9 70.96 9 70.96 14.38 76.3 14.38 76.3 20.47 62.68 20.47 62.68 14.38 68.02 14.38 68.02 9 47.13 9 47.13 14.38 52.47 14.38 52.47 20.47 38.85 20.47 38.85 14.38 44.19 14.38 44.19 9 23.3 9 23.3 14.38 28.64 14.38 28.64 20.47 14.99 20.47 14.99 14.38 20.36 14.38 20.36 9 2.9 9 2.9 128.77 256.41 128.77 256.41 9 237.82 9"/>
          <polygon class="cls-26" points="240.71 9.88 240.71 15.27 246.05 15.27 246.05 21.32 232.47 21.32 232.47 15.27 237.81 15.27 237.81 9.88 216.95 9.88 216.95 15.27 222.29 15.27 222.29 21.32 208.7 21.32 208.7 15.27 214.01 15.27 214.01 9.88 193.18 9.88 193.18 15.27 198.49 15.27 198.49 21.32 184.9 21.32 184.9 15.27 190.24 15.27 190.24 9.88 169.38 9.88 169.38 15.27 174.72 15.27 174.72 21.32 161.14 21.32 161.14 15.27 166.48 15.27 166.48 9.88 145.61 9.88 145.61 15.27 150.96 15.27 150.96 21.32 137.37 21.32 137.37 15.27 142.68 15.27 142.68 9.88 121.85 9.88 121.85 15.27 127.16 15.27 127.16 21.32 113.57 21.32 113.57 15.27 118.91 15.27 118.91 9.88 98.05 9.88 98.05 15.27 103.39 15.27 103.39 21.32 89.8 21.32 89.8 15.27 95.15 15.27 95.15 9.88 74.28 9.88 74.28 15.27 79.62 15.27 79.62 21.32 66.04 21.32 66.04 15.27 71.35 15.27 71.35 9.88 50.52 9.88 50.52 15.27 55.83 15.27 55.83 21.32 42.24 21.32 42.24 15.27 47.58 15.27 47.58 9.88 26.72 9.88 26.72 15.27 32.06 15.27 32.06 21.32 18.47 21.32 18.47 15.27 23.81 15.27 23.81 9.88 6.39 9.88 6.39 129.36 259.26 129.36 259.26 9.88 240.71 9.88"/>
          <polygon class="cls-24" points="237.61 9 237.61 14.37 242.91 14.37 242.91 20.41 229.36 20.41 229.36 14.37 234.67 14.37 234.67 9 213.87 9 213.87 14.37 219.21 14.37 219.21 20.41 205.62 20.41 205.62 14.37 210.97 14.37 210.97 9 190.17 9 190.17 14.37 195.47 14.37 195.47 20.41 181.92 20.41 181.92 14.37 187.23 14.37 187.23 9 166.46 9 166.46 14.37 171.77 14.37 171.77 20.41 158.22 20.41 158.22 14.37 163.53 14.37 163.53 9 142.73 9 142.73 14.37 148.03 14.37 148.03 20.41 134.48 20.41 134.48 14.37 139.82 14.37 139.82 9 119.02 9 119.02 14.37 124.33 14.37 124.33 20.41 110.78 20.41 110.78 14.37 116.09 14.37 116.09 9 95.29 9 95.29 14.37 100.63 14.37 100.63 20.41 87.07 20.41 87.07 14.37 92.38 14.37 92.38 9 71.58 9 71.58 14.37 76.89 14.37 76.89 20.41 63.34 20.41 63.34 14.37 68.65 14.37 68.65 9 47.85 9 47.85 14.37 53.19 14.37 53.19 20.41 39.63 20.41 39.63 14.37 44.94 14.37 44.94 9 24.14 9 24.14 14.37 29.45 14.37 29.45 20.41 15.9 20.41 15.9 14.37 21.24 14.37 21.24 9 3.87 9 3.87 128.17 256.09 128.17 256.09 9 237.61 9"/>
          <polygon class="cls-22" points="237.48 9 237.48 14.35 242.79 14.35 242.79 20.38 229.27 20.38 229.27 14.35 234.58 14.35 234.58 9 213.81 9 213.81 14.35 219.12 14.35 219.12 20.38 205.59 20.38 205.59 14.35 210.9 14.35 210.9 9 190.17 9 190.17 14.35 195.47 14.35 195.47 20.38 181.95 20.38 181.95 14.35 187.26 14.35 187.26 9 166.49 9 166.49 14.35 171.8 14.35 171.8 20.38 158.31 20.38 158.31 14.35 163.59 14.35 163.59 9 142.85 9 142.85 14.35 148.16 14.35 148.16 20.38 134.64 20.38 134.64 14.35 139.95 14.35 139.95 9 119.21 9 119.21 14.35 124.52 14.35 124.52 20.38 110.99 20.38 110.99 14.35 116.27 14.35 116.27 9 95.54 9 95.54 14.35 100.84 14.35 100.84 20.38 87.32 20.38 87.32 14.35 92.63 14.35 92.63 9 71.89 9 71.89 14.35 77.2 14.35 77.2 20.38 63.68 20.38 63.68 14.35 68.99 14.35 68.99 9 48.22 9 48.22 14.35 53.53 14.35 53.53 20.38 40.01 20.38 40.01 14.35 45.32 14.35 45.32 9 24.58 9 24.58 14.35 29.89 14.35 29.89 20.38 16.37 20.38 16.37 14.35 21.67 14.35 21.67 9 4.34 9 4.34 127.87 255.91 127.87 255.91 9 237.48 9"/>
          <polygon class="cls-16" points="237.36 9 237.36 14.33 242.63 14.33 242.63 20.34 229.17 20.34 229.17 14.33 234.45 14.33 234.45 9 213.75 9 213.75 14.33 219.05 14.33 219.05 20.34 205.56 20.34 205.56 14.33 210.87 14.33 210.87 9 190.17 9 190.17 14.33 195.47 14.33 195.47 20.34 181.98 20.34 181.98 14.33 187.26 14.33 187.26 9 166.59 9 166.59 14.33 171.86 14.33 171.86 20.34 158.37 20.34 158.37 14.33 163.68 14.33 163.68 9 142.98 9 142.98 14.33 148.28 14.33 148.28 20.34 134.79 20.34 134.79 14.33 140.07 14.33 140.07 9 119.4 9 119.4 14.33 124.67 14.33 124.67 20.34 111.18 20.34 111.18 14.33 116.49 14.33 116.49 9 95.79 9 95.79 14.33 101.09 14.33 101.09 20.34 87.6 20.34 87.6 14.33 92.88 14.33 92.88 9 72.21 9 72.21 14.33 77.48 14.33 77.48 20.34 63.99 20.34 63.99 14.33 69.3 14.33 69.3 9 48.6 9 48.6 14.33 53.9 14.33 53.9 20.34 40.41 20.34 40.41 14.33 45.69 14.33 45.69 9 25.02 9 25.02 14.33 30.29 14.33 30.29 20.34 16.8 20.34 16.8 14.33 22.11 14.33 22.11 9 4.84 9 4.84 127.59 255.75 127.59 255.75 9 237.36 9"/>
          <polygon class="cls-20" points="237.23 9 237.23 14.33 242.51 14.33 242.51 20.33 229.05 20.33 229.05 14.33 234.33 14.33 234.33 9 213.71 9 213.71 14.33 218.99 14.33 218.99 20.33 205.53 20.33 205.53 14.33 210.81 14.33 210.81 9 190.17 9 190.17 14.33 195.44 14.33 195.44 20.33 182.01 20.33 182.01 14.33 187.29 14.33 187.29 9 166.65 9 166.65 14.33 171.93 14.33 171.93 20.33 158.47 20.33 158.47 14.33 163.74 14.33 163.74 9 143.1 9 143.1 14.33 148.38 14.33 148.38 20.33 134.92 20.33 134.92 14.33 140.2 14.33 140.2 9 119.58 9 119.58 14.33 124.86 14.33 124.86 20.33 111.4 20.33 111.4 14.33 116.68 14.33 116.68 9 96.04 9 96.04 14.33 101.31 14.33 101.31 20.33 87.88 20.33 87.88 14.33 93.13 14.33 93.13 9 72.52 9 72.52 14.33 77.8 14.33 77.8 20.33 64.34 20.33 64.34 14.33 69.61 14.33 69.61 9 48.97 9 48.97 14.33 54.25 14.33 54.25 20.33 40.79 20.33 40.79 14.33 46.07 14.33 46.07 9 25.42 9 25.42 14.33 30.73 14.33 30.73 20.33 17.27 20.33 17.27 14.33 22.55 14.33 22.55 9 5.31 9 5.31 127.3 255.59 127.3 255.59 9 237.23 9"/>
          <polygon class="cls-12" points="237.11 9 237.11 14.31 242.38 14.31 242.38 20.29 228.95 20.29 228.95 14.31 234.23 14.31 234.23 9 213.65 9 213.65 14.31 218.9 14.31 218.9 20.29 205.5 20.29 205.5 14.31 210.75 14.31 210.75 9 190.17 9 190.17 14.31 195.44 14.31 195.44 20.29 182.01 20.29 182.01 14.31 187.29 14.31 187.29 9 166.71 9 166.71 14.31 171.96 14.31 171.96 20.29 158.56 20.29 158.56 14.31 163.81 14.31 163.81 9 143.23 9 143.23 14.31 148.5 14.31 148.5 20.29 135.07 20.29 135.07 14.31 140.35 14.31 140.35 9 119.77 9 119.77 14.31 125.02 14.31 125.02 20.29 111.62 20.29 111.62 14.31 116.87 14.31 116.87 9 96.29 9 96.29 14.31 101.56 14.31 101.56 20.29 88.13 20.29 88.13 14.31 93.41 14.31 93.41 9 72.83 9 72.83 14.31 78.08 14.31 78.08 20.29 64.65 20.29 64.65 14.31 69.93 14.31 69.93 9 49.34 9 49.34 14.31 54.59 14.31 54.59 20.29 41.19 20.29 41.19 14.31 46.47 14.31 46.47 9 25.86 9 25.86 14.31 31.14 14.31 31.14 20.29 17.71 20.29 17.71 14.31 22.99 14.31 22.99 9 5.81 9 5.81 127 255.41 127 255.41 9 237.11 9"/>
          <polygon class="cls-8" points="237.01 9 237.01 14.29 242.26 14.29 242.26 20.26 228.86 20.26 228.86 14.29 234.11 14.29 234.11 9 213.59 9 213.59 14.29 218.84 14.29 218.84 20.26 205.47 20.26 205.47 14.29 210.72 14.29 210.72 9 190.17 9 190.17 14.29 195.44 14.29 195.44 20.26 182.05 20.26 182.05 14.29 187.29 14.29 187.29 9 166.77 9 166.77 14.29 172.02 14.29 172.02 20.26 158.65 20.26 158.65 14.29 163.9 14.29 163.9 9 143.35 9 143.35 14.29 148.6 14.29 148.6 20.26 135.23 20.26 135.23 14.29 140.48 14.29 140.48 9 119.96 9 119.96 14.29 125.21 14.29 125.21 20.26 111.81 20.26 111.81 14.29 117.05 14.29 117.05 9 96.54 9 96.54 14.29 101.78 14.29 101.78 20.26 88.41 20.26 88.41 14.29 93.66 14.29 93.66 9 73.11 9 73.11 14.29 78.36 14.29 78.36 20.26 64.99 20.26 64.99 14.29 70.24 14.29 70.24 9 49.72 9 49.72 14.29 54.97 14.29 54.97 20.26 41.57 20.26 41.57 14.29 46.85 14.29 46.85 9 26.3 9 26.3 14.29 31.54 14.29 31.54 20.26 18.18 20.26 18.18 14.29 23.42 14.29 23.42 9 6.28 9 6.28 126.7 255.25 126.7 255.25 9 237.01 9"/>
          <polygon class="cls-14" points="236.89 9 236.89 14.28 242.1 14.28 242.1 20.24 228.77 20.24 228.77 14.28 234.01 14.28 234.01 9 213.53 9 213.53 14.28 218.77 14.28 218.77 20.24 205.44 20.24 205.44 14.28 210.65 14.28 210.65 9 190.2 9 190.2 14.28 195.41 14.28 195.41 20.24 182.08 20.24 182.08 14.28 187.32 14.28 187.32 9 166.84 9 166.84 14.28 172.05 14.28 172.05 20.24 158.72 20.24 158.72 14.28 163.96 14.28 163.96 9 143.48 9 143.48 14.28 148.72 14.28 148.72 20.24 135.39 20.24 135.39 14.28 140.6 14.28 140.6 9 120.15 9 120.15 14.28 125.36 14.28 125.36 20.24 112.03 20.24 112.03 14.28 117.27 14.28 117.27 9 96.78 9 96.78 14.28 102 14.28 102 20.24 88.66 20.24 88.66 14.28 93.91 14.28 93.91 9 73.42 9 73.42 14.28 78.67 14.28 78.67 20.24 65.34 20.24 65.34 14.28 70.55 14.28 70.55 9 50.09 9 50.09 14.28 55.31 14.28 55.31 20.24 41.97 20.24 41.97 14.28 47.22 14.28 47.22 9 26.73 9 26.73 14.28 31.98 14.28 31.98 20.24 18.61 20.24 18.61 14.28 23.86 14.28 23.86 9 6.78 9 6.78 126.4 255.09 126.4 255.09 9 236.89 9"/>
          <polygon class="cls-9" points="236.76 9 236.76 14.28 241.98 14.28 241.98 20.2 228.67 20.2 228.67 14.28 233.89 14.28 233.89 9 213.46 9 213.46 14.28 218.71 14.28 218.71 20.2 205.38 20.2 205.38 14.28 210.62 14.28 210.62 9 190.2 9 190.2 14.28 195.41 14.28 195.41 20.2 182.11 20.2 182.11 14.28 187.32 14.28 187.32 9 166.9 9 166.9 14.28 172.11 14.28 172.11 20.2 158.81 20.2 158.81 14.28 164.03 14.28 164.03 9 143.6 9 143.6 14.28 148.85 14.28 148.85 20.2 135.51 20.2 135.51 14.28 140.73 14.28 140.73 9 120.3 9 120.3 14.28 125.55 14.28 125.55 20.2 112.24 20.2 112.24 14.28 117.46 14.28 117.46 9 97.03 9 97.03 14.28 102.25 14.28 102.25 20.2 88.95 20.2 88.95 14.28 94.16 14.28 94.16 9 73.74 9 73.74 14.28 78.95 14.28 78.95 20.2 65.65 20.2 65.65 14.28 70.86 14.28 70.86 9 50.44 9 50.44 14.28 55.68 14.28 55.68 20.2 42.38 20.2 42.38 14.28 47.6 14.28 47.6 9 27.17 9 27.17 14.28 32.39 14.28 32.39 20.2 19.08 20.2 19.08 14.28 24.3 14.28 24.3 9 7.25 9 7.25 126.1 254.94 126.1 254.94 9 236.76 9"/>
          <polygon class="cls-4" points="236.64 9 236.64 14.26 241.85 14.26 241.85 20.19 228.58 20.19 228.58 14.26 233.8 14.26 233.8 9 213.4 9 213.4 14.26 218.62 14.26 218.62 20.19 205.34 20.19 205.34 14.26 210.56 14.26 210.56 9 190.2 9 190.2 14.26 195.38 14.26 195.38 20.19 182.11 20.19 182.11 14.26 187.32 14.26 187.32 9 166.96 9 166.96 14.26 172.18 14.26 172.18 20.19 158.9 20.19 158.9 14.26 164.12 14.26 164.12 9 143.73 9 143.73 14.26 148.94 14.26 148.94 20.19 135.67 20.19 135.67 14.26 140.88 14.26 140.88 9 120.52 9 120.52 14.26 125.7 14.26 125.7 20.19 112.43 20.19 112.43 14.26 117.65 14.26 117.65 9 97.28 9 97.28 14.26 102.47 14.26 102.47 20.19 89.23 20.19 89.23 14.26 94.41 14.26 94.41 9 74.05 9 74.05 14.26 79.26 14.26 79.26 20.19 65.99 20.19 65.99 14.26 71.21 14.26 71.21 9 50.81 9 50.81 14.26 56.03 14.26 56.03 20.19 42.76 20.19 42.76 14.26 47.97 14.26 47.97 9 27.61 9 27.61 14.26 32.79 14.26 32.79 20.19 19.52 20.19 19.52 14.26 24.73 14.26 24.73 9 7.75 9 7.75 125.82 254.75 125.82 254.75 9 236.64 9"/>
          <polygon class="cls-11" points="236.51 9 236.51 14.24 241.73 14.24 241.73 20.15 228.49 20.15 228.49 14.24 233.67 14.24 233.67 9 213.37 9 213.37 14.24 218.55 14.24 218.55 20.15 205.31 20.15 205.31 14.24 210.5 14.24 210.5 9 190.2 9 190.2 14.24 195.38 14.24 195.38 20.15 182.14 20.15 182.14 14.24 187.32 14.24 187.32 9 167.02 9 167.02 14.24 172.21 14.24 172.21 20.15 159 20.15 159 14.24 164.18 14.24 164.18 9 143.85 9 143.85 14.24 149.07 14.24 149.07 20.15 135.82 20.15 135.82 14.24 141.01 14.24 141.01 9 120.71 9 120.71 14.24 125.89 14.24 125.89 20.15 112.65 20.15 112.65 14.24 117.83 14.24 117.83 9 97.53 9 97.53 14.24 102.72 14.24 102.72 20.15 89.48 20.15 89.48 14.24 94.66 14.24 94.66 9 74.36 9 74.36 14.24 79.55 14.24 79.55 20.15 66.3 20.15 66.3 14.24 71.52 14.24 71.52 9 51.19 9 51.19 14.24 56.37 14.24 56.37 20.15 43.16 20.15 43.16 14.24 48.35 14.24 48.35 9 28.01 9 28.01 14.24 33.23 14.24 33.23 20.15 19.99 20.15 19.99 14.24 25.17 14.24 25.17 9 8.21 9 8.21 125.52 254.6 125.52 254.6 9 236.51 9"/>
          <polygon class="cls-17" points="236.42 9 236.42 14.22 241.57 14.22 241.57 20.12 228.39 20.12 228.39 14.22 233.58 14.22 233.58 9 213.31 9 213.31 14.22 218.49 14.22 218.49 20.12 205.28 20.12 205.28 14.22 210.47 14.22 210.47 9 190.2 9 190.2 14.22 195.38 14.22 195.38 20.12 182.17 20.12 182.17 14.22 187.35 14.22 187.35 9 167.09 9 167.09 14.22 172.27 14.22 172.27 20.12 159.06 20.12 159.06 14.22 164.24 14.22 164.24 9 143.97 9 143.97 14.22 149.16 14.22 149.16 20.12 135.95 20.12 135.95 14.22 141.13 14.22 141.13 9 120.86 9 120.86 14.22 126.05 14.22 126.05 20.12 112.87 20.12 112.87 14.22 118.02 14.22 118.02 9 97.78 9 97.78 14.22 102.97 14.22 102.97 20.12 89.76 20.12 89.76 14.22 94.94 14.22 94.94 9 74.67 9 74.67 14.22 79.86 14.22 79.86 20.12 66.65 20.12 66.65 14.22 71.83 14.22 71.83 9 51.56 9 51.56 14.22 56.75 14.22 56.75 20.12 43.54 20.12 43.54 14.22 48.72 14.22 48.72 9 28.45 9 28.45 14.22 33.64 14.22 33.64 20.12 20.43 20.12 20.43 14.22 25.61 14.22 25.61 9 8.71 9 8.71 125.23 254.44 125.23 254.44 9 236.42 9"/>
          <polygon class="cls-19" points="236.29 9 236.29 14.22 241.45 14.22 241.45 20.1 228.3 20.1 228.3 14.22 233.45 14.22 233.45 9 213.25 9 213.25 14.22 218.4 14.22 218.4 20.1 205.25 20.1 205.25 14.22 210.4 14.22 210.4 9 190.2 9 190.2 14.22 195.35 14.22 195.35 20.1 182.2 20.1 182.2 14.22 187.35 14.22 187.35 9 167.15 9 167.15 14.22 172.33 14.22 172.33 20.1 159.15 20.1 159.15 14.22 164.31 14.22 164.31 9 144.1 9 144.1 14.22 149.28 14.22 149.28 20.1 136.1 20.1 136.1 14.22 141.26 14.22 141.26 9 121.05 9 121.05 14.22 126.24 14.22 126.24 20.1 113.06 20.1 113.06 14.22 118.24 14.22 118.24 9 98.03 9 98.03 14.22 103.19 14.22 103.19 20.1 90.01 20.1 90.01 14.22 95.19 14.22 95.19 9 74.99 9 74.99 14.22 80.14 14.22 80.14 20.1 66.99 20.1 66.99 14.22 72.14 14.22 72.14 9 51.94 9 51.94 14.22 57.09 14.22 57.09 20.1 43.94 20.1 43.94 14.22 49.1 14.22 49.1 9 28.89 9 28.89 14.22 34.04 14.22 34.04 20.1 20.89 20.1 20.89 14.22 26.05 14.22 26.05 9 9.18 9 9.18 124.93 254.25 124.93 254.25 9 236.29 9"/>
          <polygon class="cls-6" points="236.17 9 236.17 14.21 241.32 14.21 241.32 20.06 228.17 20.06 228.17 14.21 233.36 14.21 233.36 9 213.18 9 213.18 14.21 218.34 14.21 218.34 20.06 205.19 20.06 205.19 14.21 210.37 14.21 210.37 9 190.2 9 190.2 14.21 195.35 14.21 195.35 20.06 182.23 20.06 182.23 14.21 187.39 14.21 187.39 9 167.21 9 167.21 14.21 172.36 14.21 172.36 20.06 159.25 20.06 159.25 14.21 164.4 14.21 164.4 9 144.22 9 144.22 14.21 149.38 14.21 149.38 20.06 136.26 20.06 136.26 14.21 141.41 14.21 141.41 9 121.24 9 121.24 14.21 126.39 14.21 126.39 20.06 113.27 20.06 113.27 14.21 118.43 14.21 118.43 9 98.25 9 98.25 14.21 103.44 14.21 103.44 20.06 90.29 20.06 90.29 14.21 95.44 14.21 95.44 9 75.3 9 75.3 14.21 80.45 14.21 80.45 20.06 67.3 20.06 67.3 14.21 72.46 14.21 72.46 9 52.31 9 52.31 14.21 57.47 14.21 57.47 20.06 44.32 20.06 44.32 14.21 49.47 14.21 49.47 9 29.33 9 29.33 14.21 34.48 14.21 34.48 20.06 21.33 20.06 21.33 14.21 26.48 14.21 26.48 9 9.68 9 9.68 124.63 254.1 124.63 254.1 9 236.17 9"/>
          <polygon class="cls-5" points="236.04 9 236.04 14.19 241.2 14.19 241.2 20.03 228.08 20.03 228.08 14.19 233.23 14.19 233.23 9 213.12 9 213.12 14.19 218.27 14.19 218.27 20.03 205.16 20.03 205.16 14.19 210.31 14.19 210.31 9 190.2 9 190.2 14.19 195.35 14.19 195.35 20.03 182.23 20.03 182.23 14.19 187.39 14.19 187.39 9 167.27 9 167.27 14.19 172.43 14.19 172.43 20.03 159.34 20.03 159.34 14.19 164.46 14.19 164.46 9 144.35 9 144.35 14.19 149.5 14.19 149.5 20.03 136.39 20.03 136.39 14.19 141.54 14.19 141.54 9 121.43 9 121.43 14.19 126.58 14.19 126.58 20.03 113.49 20.03 113.49 14.19 118.62 14.19 118.62 9 98.53 9 98.53 14.19 103.66 14.19 103.66 20.03 90.57 20.03 90.57 14.19 95.69 14.19 95.69 9 75.58 9 75.58 14.19 80.73 14.19 80.73 20.03 67.65 20.03 67.65 14.19 72.77 14.19 72.77 9 52.66 9 52.66 14.19 57.81 14.19 57.81 20.03 44.72 20.03 44.72 14.19 49.84 14.19 49.84 9 29.76 9 29.76 14.19 34.89 14.19 34.89 20.03 21.8 20.03 21.8 14.19 26.92 14.19 26.92 9 10.15 9 10.15 124.33 253.94 124.33 253.94 9 236.04 9"/>
          <polygon class="cls-23" points="235.92 9 235.92 14.17 241.07 14.17 241.07 20.01 227.99 20.01 227.99 14.17 233.11 14.17 233.11 9 213.06 9 213.06 14.17 218.18 14.17 218.18 20.01 205.13 20.01 205.13 14.17 210.25 14.17 210.25 9 190.2 9 190.2 14.17 195.35 14.17 195.35 20.01 182.26 20.01 182.26 14.17 187.39 14.17 187.39 9 167.34 9 167.34 14.17 172.49 14.17 172.49 20.01 159.4 20.01 159.4 14.17 164.52 14.17 164.52 9 144.47 9 144.47 14.17 149.63 14.17 149.63 20.01 136.54 20.01 136.54 14.17 141.66 14.17 141.66 9 121.61 9 121.61 14.17 126.77 14.17 126.77 20.01 113.68 20.01 113.68 14.17 118.8 14.17 118.8 9 98.75 9 98.75 14.17 103.91 14.17 103.91 20.01 90.82 20.01 90.82 14.17 95.94 14.17 95.94 9 75.89 9 75.89 14.17 81.04 14.17 81.04 20.01 67.96 20.01 67.96 14.17 73.08 14.17 73.08 9 53.03 9 53.03 14.17 58.18 14.17 58.18 20.01 45.1 20.01 45.1 14.17 50.22 14.17 50.22 9 30.17 9 30.17 14.17 35.29 14.17 35.29 20.01 22.24 20.01 22.24 14.17 27.36 14.17 27.36 9 10.62 9 10.62 124.05 253.75 124.05 253.75 9 235.92 9"/>
          <polygon class="cls-18" points="235.83 9 235.83 14.15 240.92 14.15 240.92 19.98 227.89 19.98 227.89 14.15 233.01 14.15 233.01 9 213 9 213 14.15 218.12 14.15 218.12 19.98 205.09 19.98 205.09 14.15 210.22 14.15 210.22 9 190.2 9 190.2 14.15 195.32 14.15 195.32 19.98 182.3 19.98 182.3 14.15 187.42 14.15 187.42 9 167.4 9 167.4 14.15 172.52 14.15 172.52 19.98 159.5 19.98 159.5 14.15 164.62 14.15 164.62 9 144.6 9 144.6 14.15 149.72 14.15 149.72 19.98 136.7 19.98 136.7 14.15 141.82 14.15 141.82 9 121.8 9 121.8 14.15 126.92 14.15 126.92 19.98 113.9 19.98 113.9 14.15 118.99 14.15 118.99 9 99 9 99 14.15 104.12 14.15 104.12 19.98 91.1 19.98 91.1 14.15 96.19 14.15 96.19 9 76.2 9 76.2 14.15 81.33 14.15 81.33 19.98 68.3 19.98 68.3 14.15 73.39 14.15 73.39 9 53.41 9 53.41 14.15 58.53 14.15 58.53 19.98 45.5 19.98 45.5 14.15 50.59 14.15 50.59 9 30.61 9 30.61 14.15 35.73 14.15 35.73 19.98 22.7 19.98 22.7 14.15 27.8 14.15 27.8 9 11.12 9 11.12 123.75 253.6 123.75 253.6 9 235.83 9"/>
          <polygon class="cls-7" points="235.7 9 235.7 14.15 240.79 14.15 240.79 19.96 227.8 19.96 227.8 14.15 232.89 14.15 232.89 9 212.96 9 212.96 14.15 218.05 14.15 218.05 19.96 205.06 19.96 205.06 14.15 210.15 14.15 210.15 9 190.23 9 190.23 14.15 195.32 14.15 195.32 19.96 182.33 19.96 182.33 14.15 187.42 14.15 187.42 9 167.49 9 167.49 14.15 172.58 14.15 172.58 19.96 159.59 19.96 159.59 14.15 164.68 14.15 164.68 9 144.72 9 144.72 14.15 149.85 14.15 149.85 19.96 136.85 19.96 136.85 14.15 141.94 14.15 141.94 9 121.99 9 121.99 14.15 127.11 14.15 127.11 19.96 114.12 19.96 114.12 14.15 119.21 14.15 119.21 9 99.25 9 99.25 14.15 104.34 14.15 104.34 19.96 91.35 19.96 91.35 14.15 96.47 14.15 96.47 9 76.52 9 76.52 14.15 81.61 14.15 81.61 19.96 68.61 19.96 68.61 14.15 73.74 14.15 73.74 9 53.78 9 53.78 14.15 58.87 14.15 58.87 19.96 45.88 19.96 45.88 14.15 50.97 14.15 50.97 9 31.04 9 31.04 14.15 36.13 14.15 36.13 19.96 23.14 19.96 23.14 14.15 28.23 14.15 28.23 9 11.59 9 11.59 123.46 253.41 123.46 253.41 9 235.7 9"/>
          <polygon class="cls-3" points="235.58 9 235.58 14.14 240.67 14.14 240.67 19.92 227.71 19.92 227.71 14.14 232.8 14.14 232.8 9 212.9 9 212.9 14.14 217.99 14.14 217.99 19.92 205.03 19.92 205.03 14.14 210.12 14.14 210.12 9 190.23 9 190.23 14.14 195.29 14.14 195.29 19.92 182.36 19.92 182.36 14.14 187.42 14.14 187.42 9 167.55 9 167.55 14.14 172.61 14.14 172.61 19.92 159.65 19.92 159.65 14.14 164.74 14.14 164.74 9 144.85 9 144.85 14.14 149.94 14.14 149.94 19.92 136.98 19.92 136.98 14.14 142.07 14.14 142.07 9 122.18 9 122.18 14.14 127.27 14.14 127.27 19.92 114.31 19.92 114.31 14.14 119.4 14.14 119.4 9 99.5 9 99.5 14.14 104.59 14.14 104.59 19.92 91.63 19.92 91.63 14.14 96.72 14.14 96.72 9 76.83 9 76.83 14.14 81.92 14.14 81.92 19.92 68.96 19.92 68.96 14.14 74.05 14.14 74.05 9 54.15 9 54.15 14.14 59.25 14.14 59.25 19.92 46.28 19.92 46.28 14.14 51.38 14.14 51.38 9 31.48 9 31.48 14.14 36.57 14.14 36.57 19.92 23.61 19.92 23.61 14.14 28.67 14.14 28.67 9 12.09 9 12.09 123.16 253.25 123.16 253.25 9 235.58 9"/>
          <polygon class="cls-29" points="235.45 9 235.45 14.12 240.54 14.12 240.54 19.89 227.61 19.89 227.61 14.12 232.67 14.12 232.67 9 212.84 9 212.84 14.12 217.9 14.12 217.9 19.89 205 19.89 205 14.12 210.06 14.12 210.06 9 190.23 9 190.23 14.12 195.29 14.12 195.29 19.89 182.36 19.89 182.36 14.12 187.45 14.12 187.45 9 167.62 9 167.62 14.12 172.68 14.12 172.68 19.89 159.75 19.89 159.75 14.12 164.81 14.12 164.81 9 144.97 9 144.97 14.12 150.06 14.12 150.06 19.89 137.14 19.89 137.14 14.12 142.19 14.12 142.19 9 122.36 9 122.36 14.12 127.45 14.12 127.45 19.89 114.52 19.89 114.52 14.12 119.58 14.12 119.58 9 99.75 9 99.75 14.12 104.81 14.12 104.81 19.89 91.91 19.89 91.91 14.12 96.97 14.12 96.97 9 77.14 9 77.14 14.12 82.2 14.12 82.2 19.89 69.27 19.89 69.27 14.12 74.36 14.12 74.36 9 54.53 9 54.53 14.12 59.59 14.12 59.59 19.89 46.66 19.89 46.66 14.12 51.75 14.12 51.75 9 31.89 9 31.89 14.12 36.98 14.12 36.98 19.89 24.05 19.89 24.05 14.12 29.11 14.12 29.11 9 12.55 9 12.55 122.86 253.1 122.86 253.1 9 235.45 9"/>
        </g>
        <polygon class="cls-28" points="239.48 9 239.48 14.12 244.63 14.12 244.63 19.89 231.45 19.89 231.45 14.12 236.64 14.12 236.64 9 216.43 9 216.43 14.12 221.62 14.12 221.62 19.89 208.44 19.89 208.44 14.12 213.62 14.12 213.62 9 193.41 9 193.41 14.12 198.57 14.12 198.57 19.89 185.42 19.89 185.42 14.12 190.57 14.12 190.57 9 170.4 9 170.4 14.12 175.55 14.12 175.55 19.89 162.4 19.89 162.4 14.12 167.55 14.12 167.55 9 147.38 9 147.38 14.12 152.53 14.12 152.53 19.89 139.38 19.89 139.38 14.12 144.54 14.12 144.54 9 124.33 9 124.33 14.12 129.51 14.12 129.51 19.89 116.37 19.89 116.37 14.12 121.52 14.12 121.52 9 101.31 9 101.31 14.12 106.5 14.12 106.5 19.89 93.32 19.89 93.32 14.12 98.5 14.12 98.5 9 78.3 9 78.3 14.12 83.45 14.12 83.45 19.89 70.3 19.89 70.3 14.12 75.45 14.12 75.45 9 55.28 9 55.28 14.12 60.43 14.12 60.43 19.89 47.28 19.89 47.28 14.12 52.44 14.12 52.44 9 32.26 9 32.26 14.12 37.41 14.12 37.41 19.89 24.27 19.89 24.27 14.12 29.42 14.12 29.42 9 12.55 9 12.55 122.86 257.41 122.86 257.41 9 239.48 9"/>
        <g id="green_2">
          <g class="cls-32">
            <polygon class="cls-1" points="83.88 17.04 85.7 14.84 83.92 12.63 85.73 10.11 83.98 7.88 85.76 5.99 84.01 3.78 85.79 2.21 84.04 0 204.03 .08 201.91 2.44 204 4.04 201.87 6.72 203.97 8.61 201.94 10.66 203.94 12.55 202.03 14.92 203.9 17.15 83.88 17.04"/>
          </g>
        </g>
      </g>
    </g>
  </g>
</svg>